<svg xmlns="http://www.w3.org/2000/svg" style="max-height:366.88px;transform-origin:50% 50%;transform:none" viewBox="0 0 20000 20000">
  <path fill="#27d" d="M1370 10000V1370h17260v17260H1370v-8630zm11076 7810c58-11 254-27 431-36 170-8 1371-197 1578-248l447-110a2958 2958 0 0 0 553-176c68-21 234-109 319-168 133-92 377-275 438-328 126-110 380-447 472-629 54-107 117-287 171-490 59-223 230-763 373-1180 167-490 233-716 316-1091 47-216 59-290 76-459 6-60 15-146 21-190 15-114 6-614-14-820-21-213-39-334-82-550-134-674-310-1294-500-1760l-105-260c-65-166-446-948-500-1025a14041 14041 0 0 0-974-1510c-91-124-166-234-166-246 0-11 20-105 45-209s55-249 66-322c21-129 22-137 6-262-15-122-94-468-135-596-51-158-180-455-242-558-37-61-161-237-263-372-159-210-408-443-728-682-118-88-227-168-244-179l-157-106c-70-49-131-88-136-88-4 0-31-16-59-35-29-19-54-35-57-35-2 0-40-22-83-48-43-27-121-71-173-99s-120-65-150-83c-93-55-458-228-590-280l-115-45c-167-69-684-205-907-240-123-19-409-19-653 0-206 16-306 30-595 86-180 34-325 61-380 69a731 731 0 0 0-155 30c-11 4-96 27-190 49-93 23-201 51-240 63a7938 7938 0 0 0-650 238c-2 0-39 16-82 36-160 75-204 94-208 94a10311 10311 0 0 1-310 165c-55 29-149 83-210 120l-165 100c-30 17-119 73-197 123a13251 13251 0 0 0-630 418c-92 68-116 70-169 12-20-24-106-117-191-208-411-444-542-562-871-784a1218 1218 0 0 0-487-215c-362-93-421-101-603-77-75 10-147 22-160 27s-34 9-48 9c-13 0-32 4-42 9-20 11-143 41-168 41-34 0-244 90-332 143a3453 3453 0 0 0-510 381 3105 3105 0 0 0-380 475c-113 168-166 304-245 636-91 377-90 430 7 818 25 97 57 205 72 239 29 67 144 236 207 305 43 46 249 199 312 230 22 11 128 42 235 67 216 52 199 52 399 5 101-24 145-29 245-29 109 1 128 3 191 29 66 27 70 30 73 62 2 30-7 45-88 134a5851 5851 0 0 0-281 332l-190 238a7733 7733 0 0 0-444 611l-116 191c-37 59-80 135-96 168l-85 170c-91 178-160 351-271 675-101 295-281 998-316 1240-68 462-67 640 10 1190 15 106 62 318 149 675 107 435 165 629 251 835 108 257 128 297 282 567 136 239 474 667 668 847l264 251c254 244 283 269 440 385 281 207 392 274 538 324 116 39 436 108 527 113 104 6 240-11 418-53 57-13 124-24 148-24 42 0 49 5 142 93 267 251 592 523 954 799a16527 16527 0 0 0 778 552c36 27 97 64 135 83 110 56 209 118 356 224 74 54 148 101 164 105 17 4 47 20 69 36 21 15 43 28 49 28 11 0 155 66 239 110 31 17 62 30 68 30 7 0 33 15 59 34s60 38 76 42c17 4 50 17 75 29 194 94 284 135 300 135 7 0 27 9 45 20s67 31 109 45 84 29 93 35c22 12 53 23 293 106a6542 6542 0 0 0 295 95c21 16 757 192 910 218l126 22c58 10 245 27 379 34l140 12c94 11 466 7 536-7z" style="transform:none"/>
  <path fill="#4a90e4" d="M3263 9983c10-122 25-231 43-313 25-118 89-365 124-480l50-170a8178 8178 0 0 1 205-555 4727 4727 0 0 1 335-632c0-34 328-475 489-657 30-33 69-83 87-111 18-27 45-64 61-81l108-120c148-166 218-239 525-544 282-281 307-309 316-350 25-116-30-184-306-375l-149-103a4000 4000 0 0 0-486-274l-90-33c-199-75-403-123-565-132-115-6-247 11-362 47-127 40-187 20-232-75-96-203-66-527 74-805 113-225 388-493 620-606a927 927 0 0 1 605-69c162 42 201 59 310 133 198 134 369 294 701 657 320 350 379 420 440 524l98 165c23 38 58 83 79 100 35 28 46 31 106 31 77 0 57 12 301-185a7246 7246 0 0 1 338-255 12909 12909 0 0 1 637-426c73-48 159-101 191-119a1224 1224 0 0 0 129-80 2047 2047 0 0 1 200-115c59-31 124-67 144-79 44-28 159-87 224-116 27-12 96-43 153-71a2425 2425 0 0 1 176-78c35-16 90-38 123-49s74-25 90-32c52-21 68-28 140-54 128-45 165-56 200-56 33 0 35 2 35 33-1 27-50 96-293 413-285 372-307 397-962 1120-639 706-696 765-1270 1333a221767 221767 0 0 0-3188 3201c-443 465-494 515-526 518l-34 3 6-78zm617-7281c0-4 9-15 20-25 26-22 70-13 70 14 0 16-8 19-45 19-25 0-45-3-45-8zm1073-19c-14-3-23-12-23-23 0-16 7-19 40-17 22 1 40 5 40 10 0 4 7 7 15 7s15 7 15 15c0 15-35 18-87 8zm-863-28c0-3 9-14 20-25 14-14 28-18 48-14 19 4 34 0 45-10 21-22 67-11 67 15 0 16-8 19-45 19-25 0-45 5-45 10 0 6-20 10-45 10s-45-2-45-5zm620-30c-30-7-70-14-87-14-25-1-33-5-33-20 0-10 9-21 20-24s20-1 20 5 15 8 35 6c19-2 36 0 37 4 2 4 24 9 50 10 27 2 48 6 48 11 0 4 7 7 15 7s15 7 15 15c0 18-40 18-120 0zm-280-40c0-8 7-15 15-15s15-4 15-10c0-5 9-10 20-10s20 5 20 10c0 6 7 10 15 10s15 7 15 15c0 11-12 15-50 15s-50-4-50-15zm5110-110c0-3 9-14 20-25 14-14 28-18 48-14 19 4 34 0 45-10 21-22 67-11 67 15 0 16-8 19-45 19-25 0-45 5-45 10 0 6-20 10-45 10s-45-2-45-5zm490-93c0-4 9-15 20-25 26-22 70-13 70 14 0 16-8 19-45 19-25 0-45-3-45-8zm1693-9c-14-3-23-12-23-23 0-16 7-19 40-17 22 1 40 5 40 10 0 4 7 7 15 7s15 7 15 15c0 15-35 18-87 8zm-1583-18c0-8 7-15 15-15s15-5 15-11c0-7 11-8 30-4 20 4 30 3 30-5s10-9 30-5 30 3 30-5 10-9 30-5 30 3 30-5 9-10 27-6c15 4 29 3 33-4 10-17 60-1 60 19 0 14-24 21-137 39-164 26-193 27-193 7zm1343-38c-39-8-53-15-53-28 0-17 37-34 42-18 2 5 24 10 50 11 27 2 48 6 48 11 0 4 7 7 15 7s15 7 15 15c0 17-35 18-117 2zm-973-22c0-8 6-15 14-15s16-5 18-11c6-19 58 1 58 22 0 16-8 19-45 19-33 0-45-4-45-15zm100-10c0-8 7-15 15-15s15-4 15-10c0-5 7-10 15-10s15 5 15 11 7 9 15 5c10-4 15 1 15 14 0 17-7 20-45 20-33 0-45-4-45-15zm690-14c0-10 9-21 20-24s20-1 20 4 7 9 15 9 15 7 15 15c0 10-11 15-35 15-28 0-35-4-35-19z" style="transform:none"/>
  <path fill="#7baeed" d="m3394 11503-34-143c-16-63-40-182-54-265a4008 4008 0 0 1-56-1027c14-74 32-105 40-66 4 22 43-16 360-351 436-461 1390-1421 2826-2845l1090-1081 679-749c662-732 685-758 958-1115l290-379c8-11 5-12-16-7-31 8-35-5-9-27 35-31 224-73 642-143 113-19 237-42 275-50 125-27 389-45 686-45 361 0 471 18 764 124 169 61 214 78 272 103 61 25 63 27 63 62s-42 78-1102 1131C9969 5723 9965 5726 9321 6430c-355 388-912 1005-1239 1372l-594 668-1204 1020-1404 1020c-1282 932-1406 1020-1441 1020-34 0-39-3-45-27zm966-6402c0-10 9-21 20-24s20-1 20 4 7 9 15 9 15 7 15 15c0 10-11 15-35 15-28 0-35-4-35-19z" style="transform:none"/>
  <g fill="#bcc0c4" style="transform:none">
    <path d="m1097 19914-308-74-156-112c-86-61-170-124-187-139-18-15-87-104-154-197l-122-170-75-317-75-316V1431l150-632 112-156c61-86 124-170 139-187 15-18 104-87 197-154l170-122 317-75 316-75h17158l632 150 156 112c86 61 170 124 187 139 18 15 87 104 154 197l122 170 75 317 75 316v17158l-75 316-75 317-122 170c-67 93-136 182-154 197-17 15-101 78-187 139l-156 112-632 150-17174-2-308-74zm17646-715c123-29 137-35 211-88 58-41 96-78 141-139 60-81 63-87 95-223 18-77 30-142 28-145-3-2-10 21-17 52-9 40-16 53-24 45-7-7-7-25 1-62 9-38 12-2085 12-8629V1432l-31-134c-17-73-39-142-49-153-9-11-38-50-63-86a660 660 0 0 0-201-171c-6-4-72-21-146-37l-135-31H9990c-8401 0-8577 0-8645 19-39 11-102 25-142 32-54 10-73 18-76 31-3 11-18 21-36 24-17 4-31 13-31 20 0 8-9 14-20 14s-20 5-20 10c0 6-7 10-15 10s-17 11-21 25c-3 14-10 25-15 25s-9 7-9 15c0 7-6 18-13 22-6 4-19 21-27 37s-23 31-33 34c-9 2-17 13-17 23s-13 75-30 144l-30 126v8579c0 6544 3 8591 12 8629 8 37 8 55 1 62-8 8-15-5-24-45-7-31-14-54-17-52-2 3 10 68 28 145 32 136 35 142 95 223 45 61 83 98 141 139 72 52 89 59 204 87l125 30 17236 2 132-31z"/>
    <path d="M836 18816c-19-79-19-76-2-76s43 117 29 131c-7 7-16-11-27-55zm18300 55c-13-20 14-131 31-131 15 0 13 20-11 105-8 28-14 36-20 26z"/>
  </g>
  <g fill="#99c6f9" style="transform:none">
    <path d="M1266 19184c-131-32-143-37-220-93-60-44-96-79-138-139-55-76-59-87-93-227l-35-147V1422l34-143c19-78 32-148 29-156-3-7 1-13 10-13 17 0 50-46 43-59-3-5 4-11 15-14 15-4 20-11 16-21s-1-16 9-16c9 0 14-6 12-12-5-14 15-38 31-38 6 0 11-4 11-10 0-5 9-10 20-10s20-6 20-14c0-7 14-16 31-20 19-4 33-13 36-26 5-21 36-35 53-25 5 3 10 1 10-6 0-6 8-9 20-6 11 3 20 2 20-3 0-4 18-7 40-6 25 0 44-5 49-13s16-11 25-8c9 4 16 1 16-4 0-6 9-9 20-6s20 2 20-1c0-9 17238-4 17252 4 5 3 12 3 15 0s12-1 20 6c7 6 16 8 20 5 3-4 12-2 19 3 6 6 28 12 46 14 19 2 40 6 47 10 6 4 15 5 20 1 5-3 13 0 16 6 4 5 13 8 21 5 7-3 26 5 41 17 16 13 54 40 86 62 40 27 76 65 118 122 57 81 61 90 94 230l35 145v17156l-35 147c-34 142-38 151-94 229-44 60-79 96-139 138-76 55-87 59-227 93l-147 35-17173-2-139-34zm17334-9184V1400H1400v17200h17200v-8600z"/>
    <path d="M3400 11510c0-42 12-52 28-23 9 15 12 15 33 1 13-8 647-468 1408-1022l1385-1006 1204-1020 594-668c327-367 884-984 1239-1372 644-704 647-707 1750-1802 1053-1046 1103-1098 1084-1112s-18-15 23-16c43 0 43 0 40 33-3 28-144 172-1119 1142-1111 1106-1118 1113-1760 1815-355 388-908 1000-1230 1362l-584 656-1206 1022-1410 1025c-1220 887-1415 1025-1445 1025-33 0-34-1-34-40z"/>
  </g>
  <path fill="#adcdf4" d="M4353 13293a5102 5102 0 0 1-249-263 3796 3796 0 0 1-324-490c-23-34-105-205-153-320-82-198-121-310-168-480-48-172-59-243-39-255 6-3 10 3 10 14 0 12 2 21 4 21 3 0 639-461 1415-1025l1410-1025 1206-1022 588-660c323-364 894-994 1268-1402 679-740 681-742 1757-1811 991-984 1075-1071 1057-1082s-14-12 26-13c34 0 67 10 120 36l144 69c87 39 400 213 558 308l137 82c14 7 20 20 20 43 0 18-40 167-90 331l-89 297-159 300c-122 230-170 310-205 346-26 26-47 51-47 57 0 5-18 25-40 42-22 18-40 38-40 45s-16 26-35 41-35 33-35 40c0 6-18 27-40 46s-40 39-40 45-18 26-40 45-40 39-40 45-18 26-40 45-40 39-40 45-18 26-40 45-40 39-40 45-18 26-40 45-40 39-40 45-18 26-40 45-40 39-40 45-18 26-40 45-40 39-40 45-18 26-40 45-40 39-40 45-18 26-40 43c-22 18-40 38-40 45s-18 28-40 45c-22 18-40 38-40 45s-16 26-35 41-35 33-35 40c0 6-18 27-40 46s-40 39-40 45-18 26-40 45-40 39-40 45-18 26-40 45-40 39-40 45-18 26-40 45-40 39-40 45-18 26-40 45-40 39-40 45-18 26-40 45-40 39-40 45-22 30-50 54c-27 24-50 48-50 55 0 6-27 36-60 65s-60 58-60 65c0 6-25 33-55 60-30 26-55 53-55 60 0 6-27 36-60 65s-60 58-60 65c0 6-25 33-55 60-30 26-55 53-55 60 0 6-27 36-60 65s-60 58-60 65c0 6-25 33-55 60-30 26-55 53-55 60 0 6-27 36-60 65s-60 58-60 65c0 6-25 33-55 60-30 26-55 53-55 60 0 6-27 36-60 65s-60 58-60 65c0 6-25 33-55 60-30 26-55 53-55 60 0 6-27 36-60 65s-60 57-60 63c0 13-592 605-605 605-6 0-221 214-479 475-257 261-474 475-481 475s-153 144-325 320-318 320-324 320c-7 0-92 83-190 185s-183 185-190 185c-6 0-92 83-190 185-97 102-183 185-190 185-6 0-90 81-185 180s-178 180-185 180c-6 0-92 83-190 185s-183 185-190 185-92 83-190 185-183 185-190 185c-6 0-92 83-190 185-97 102-183 185-190 185-6 0-90 81-185 180s-179 180-186 180-53 43-102 95c-88 93-91 95-135 95h-45l-190-187zM954 965c8-8 19-15 25-15s11-4 11-10c0-5 8-10 17-10 12 0 5 9-19 25-41 28-57 33-34 10zm146-105c0-9 39-25 46-18 2 3-7 10-21 16s-25 7-25 2z" style="transform:none"/>
  <path fill="#e3eefc" d="M5375 14070c-159-23-393-176-667-435-136-128-158-153-158-179 0-23 3-27 12-18 23 23 42 11 131-83 49-52 95-95 102-95s91-81 186-180 179-180 185-180c7 0 93-83 190-185 98-102 184-185 190-185 7 0 92-83 190-185s183-185 190-185 92-83 190-185 184-185 190-185c7 0 90-81 185-180s179-180 185-180c7 0 93-83 190-185 98-102 184-185 190-185 7 0 92-83 190-185s183-185 190-185c6 0 152-144 324-320s318-320 325-320 224-214 481-475c258-261 473-475 479-475a12140 12140 0 0 0 660-664c36-32 63-61 61-65-3-4 22-31 55-60 32-29 57-56 54-60-2-5 25-34 60-65 36-32 63-61 61-65-3-4 22-31 55-60 32-29 57-56 54-60-2-5 25-34 60-65 36-32 63-61 61-65-3-4 22-31 55-60 32-29 57-56 54-60-2-5 25-34 60-65 36-32 63-61 61-65-3-4 22-31 55-60 32-29 57-56 54-60-2-5 25-34 60-65 36-32 63-61 61-65-3-4 22-31 55-60 32-29 57-56 54-60-2-5 25-34 60-65 36-32 63-61 61-65-3-4 19-29 50-55 30-26 52-51 50-55-3-4 15-24 40-45 24-20 42-41 40-45-3-4 15-24 40-45 24-20 42-41 40-45-3-4 15-24 40-45 24-20 42-41 40-45-3-4 15-24 40-45 24-20 42-41 40-45-3-4 15-24 40-45 24-20 42-41 40-45-3-4 15-24 40-45 24-20 42-41 39-45-2-5 14-23 35-40 22-18 38-36 35-41-3-4 15-24 40-45 25-20 43-40 40-45-3-4 15-24 40-45 25-20 43-40 41-44-3-4 15-24 40-45 24-20 42-41 40-45-3-4 15-24 40-45 24-20 42-41 40-45-3-4 15-24 40-45 24-20 42-41 40-45-3-4 15-24 40-45 24-20 42-41 40-45-3-4 15-24 40-45 24-20 42-41 40-45-3-4 15-24 40-45 24-20 42-41 40-45-3-4 15-24 40-45 24-20 42-41 40-45-3-4 15-24 40-45 24-20 42-41 39-45-2-5 14-23 35-40 22-18 38-36 35-41-3-4 15-24 40-45 25-20 43-40 40-45-3-4 16-25 41-45s43-39 40-42c-2-3 4-13 15-24s17-24 14-29c-4-6-1-10 5-10s8-4 5-10-1-10 5-10 8-4 5-10c-3-5-1-10 5-10s8-5 5-10c-3-6-2-10 4-10 13 0 52-75 44-84-4-3-1-6 6-6s9-4 6-10c-3-5-1-10 5-10s8-4 5-10c-3-5-1-10 5-10s8-4 5-10c-3-5-2-10 4-10 13 0 52-75 44-84-4-3-1-6 6-6s9-5 6-10c-3-6-1-10 5-10s8-4 5-10c-3-5-1-10 5-10s8-4 5-10c-3-5-2-10 4-10 13 0 52-75 44-84-4-3-1-6 6-6s9-5 6-10c-3-6-1-10 5-10s8-4 5-10c-3-5-1-10 5-10s8-4 5-10c-3-5-1-10 5-10 14 0 43-67 35-80-4-6-1-10 5-10 7 0 10-7 6-15-3-8-1-15 5-15s9-7 6-15c-4-8-2-17 4-21 6-3 8-12 5-20s-1-14 5-14 9-7 5-15c-3-8-1-15 5-15s9-7 6-15c-4-8-2-17 4-21 6-3 8-12 5-20s-1-14 5-14 9-7 5-15c-3-8-1-15 5-15s9-7 6-15c-4-8-2-17 4-21 6-3 8-12 5-20s-1-14 5-14 9-7 5-15c-3-8-1-15 5-15s9-7 6-15c-4-8-2-17 4-21 6-3 8-12 5-20s-1-14 5-14 9-7 5-15c-3-8-1-15 5-15s9-7 6-15c-4-8-2-17 4-21 6-3 8-12 5-20s-1-14 5-14 9-7 5-15c-3-8-1-15 4-15 6 0 10-7 10-15s-7-15-15-15-15-7-15-15c0-10 10-15 31-15s56 18 112 57l159 109c197 133 485 385 633 553 89 102 200 263 250 361 18 36 54 117 80 180 114 279 135 361 142 555 8 226-12 321-117 556-45 100-101 234-125 298-23 64-85 211-135 326-80 180-120 255-288 530a5485 5485 0 0 1-466 670c-149 193-374 476-501 630-254 309-104 153-1975 2049l-985 998-340 281c-221 183-440 354-625 487l-499 358a3124 3124 0 0 1-360 232c-435 231-570 298-706 351-140 55-542 180-1008 314-109 31-220 65-245 77-110 47-312 102-434 118-92 11-227 11-303 0zm-961-714c-3-8-4-24-2-36 3-20 5-20 43 14l40 35-38 1c-24 0-40-5-43-14zm-234-263v-37l30 29c17 16 30 32 30 37 0 4-13 8-30 8-28 0-30-3-30-37zm-70-73c0-25-4-30-25-30-22 0-25-4-25-35 0-19 3-35 8-35 4 1 23 21 42 47 69 90 66 83 31 83-28 0-31-3-31-30zm2272-7832c-32-7-42-14-40-26 3-14 19-17 106-19 93-2 102 0 102 16 0 14-12 22-44 30-51 13-65 13-124-1zm588-369c0-22 5-32 20-36 11-3 20-14 20-24 0-13 7-19 24-19 14 0 28-4 31-10 3-5 22-10 42-10 31 0 34 2 22 16-7 8-46 38-86 65l-73 49v-31zm310-219c0-20 5-30 15-30 8 0 15-8 15-19 0-18 39-31 99-31 33 0 16 19-65 69l-64 40v-29zm320-224c0-31 3-34 38-40 51-8 82-8 82 2 0 8-100 72-113 72-4 0-7-15-7-34zm280-171c0-14 5-25 10-25 6 0 10-7 10-15 0-9 9-15 25-15 15 0 25-6 25-14s16-16 40-20c31-5 40-11 40-25 0-16 10-21 55-26 31-4 59-5 62-1 7 7-18 28-57 48-14 7-38 22-55 34-33 23-141 84-149 84-4 0-6-11-6-25zm330-192c0-30 45-73 76-73 14 0 24-6 24-14 0-18 22-26 71-26 25 0 39 5 39 13 0 14-24 30-134 86l-76 39v-25zm-4400-170c0-16 9-36 20-46 11-9 20-23 20-31 0-10 17-17 55-21 31-4 58-5 61-2s-14 19-38 36c-23 17-52 39-63 49-53 46-55 47-55 15zm4810-58c0-28 4-35 19-35 11 0 21-4 23-9s31-13 66-17c53-6 62-4 62 10 0 9-4 16-10 16-5 0-42 16-81 35l-76 35c-1 0-3-16-3-35zm370-161c0-15 6-24 15-24 8 0 15-6 15-12 0-13 99-49 133-48 9 0 17-4 17-10 0-5 20-10 45-10 31 0 45 4 45 13 0 18-50 41-197 91l-73 25v-25zm-4800-26c0-45 63-69 228-85 58-6 62-5 62 15 0 17-8 22-37 28-75 12-159 32-205 47-47 15-48 14-48-5zm553-6c-65-20-83-29-83-44 0-13 7-18 26-18 37 0 114 21 114 31 0 5 14 9 30 9 25 0 30 4 30 25 0 31-9 31-117-3zm4707-142c0-29 2-30 45-30 37 0 45 3 45 18 0 13-12 22-39 30-52 16-51 16-51-18zm140-38c0-28 1-29 98-45 129-23 152-22 152 3 0 11-1 20-3 20-8 0-214 41-229 46-15 4-18 0-18-24zm2335-4-97-35c-34-11-48-21-48-35s8-18 35-18c19 0 35 5 35 10 0 6 13 10 29 10s36 7 45 15c8 8 26 15 40 15 22 0 26 4 26 30 0 35 1 34-65 8zm-2075-51c0-23 7-25 248-65 286-49 302-50 302-23 0 16-11 22-52 30-82 16-469 81-485 81-7 0-13-10-13-23zm560-102c0-23 4-25 45-25 37 0 45 3 45 19 0 19-25 31-67 31-18 0-23-6-23-25zm1020 4-77-14c-24-4-33-11-33-25 0-24 8-24 113-8 71 10 77 13 77 35 0 25-6 26-80 12zm-840-22c0-22 5-25 53-31 28-3 76-6 105-6 45 0 52 3 52 20 0 21-14 25-137 35-72 6-73 6-73-18zm320-22c0-22 4-25 40-25s40 3 40 25c0 23-4 25-40 25s-40-2-40-25zm100 0c0-25 1-25 90-25s90 0 90 25-1 25-90 25-90 0-90-25z" style="transform:none"/>
  <path fill="#fff" d="M11875 17848c-72-8-204-18-310-22-33-1-91-8-130-15l-135-21a11185 11185 0 0 1-975-230 6542 6542 0 0 1-295-94c-240-83-271-94-293-106-9-6-51-21-93-35s-91-34-109-45-38-20-45-20c-16 0-106-41-300-135-25-12-58-25-75-29-16-4-50-23-76-42s-52-34-59-34c-6 0-37-13-68-30-84-44-228-110-239-110-6 0-28-13-49-28-22-16-52-32-69-36-16-4-90-51-164-105a2584 2584 0 0 0-356-224c-38-19-99-56-135-83a16527 16527 0 0 1-778-552c-362-276-687-548-954-799-54-51-104-93-112-93s-61 11-118 24c-311 73-468 74-765 2-351-84-406-111-778-386-157-116-186-141-440-385l-264-251a4741 4741 0 0 1-668-847 3777 3777 0 0 1-282-567c-86-206-144-400-251-835-87-357-134-569-149-675-78-556-80-780-10-1250 35-242 215-945 316-1240 111-324 180-497 271-675l85-170c16-33 59-109 96-168l116-191c75-124 301-435 444-611l190-238c81-104 166-205 281-332 49-55 86-103 82-106-4-4-37-18-74-33-95-37-203-36-374 5-206 49-228 49-454-6-107-26-213-57-235-68-63-31-269-184-312-230-63-69-178-238-207-305-30-68-107-363-131-501-17-100-19-268-4-361 17-105 99-437 135-548 64-194 121-293 332-574 132-176 284-322 481-462 198-141 315-210 426-254 103-39 363-103 540-132 202-33 279-27 585 46 330 79 390 103 592 240 329 222 460 340 871 784l191 207 37 42 72-53a14184 14184 0 0 1 827-541l165-100c61-37 155-91 210-120a10311 10311 0 0 0 310-165c4 0 48-19 208-94 43-20 80-36 82-36a7661 7661 0 0 1 650-238c73-22 284-75 440-112 50-11 178-36 285-54l430-75c284-50 514-71 799-71 249 0 320 9 626 81 269 64 482 125 600 174l115 45a7309 7309 0 0 1 996 510c3 0 28 16 57 35 28 19 55 35 59 35 5 0 66 39 136 88l157 106c100 63 480 359 599 466 218 198 309 303 517 592 137 190 183 278 290 545 69 172 82 215 140 450 50 206 79 382 79 487 0 80-33 270-84 485l-42 180 164 223a14148 14148 0 0 1 972 1508c54 77 435 859 500 1025l105 260c190 466 366 1086 500 1760 42 216 61 337 82 550 20 206 29 763 14 880-6 44-15 130-21 190-17 169-29 243-76 459-83 375-149 601-316 1091-143 417-314 957-373 1180-54 203-117 383-171 490-92 182-346 519-472 629-61 53-305 236-438 328-85 59-251 147-319 168a2958 2958 0 0 1-553 176l-447 110c-210 52-1534 260-1590 250-16-3-70 1-120 9-49 8-106 12-125 9s-80 2-135 12c-112 19-516 27-640 12zm-6227-3808c122-16 324-71 434-118 25-12 136-46 245-77 466-134 868-259 1008-314 136-53 271-120 706-351 99-52 216-128 360-232l499-358c185-133 404-304 625-487l340-281 985-998c1871-1896 1721-1740 1975-2049 127-154 352-437 501-630 247-320 287-377 466-670 168-275 208-350 288-530 50-115 112-262 135-326 24-64 80-198 125-298 68-152 84-199 102-294 35-191 17-372-57-577-37-104-115-289-150-360-50-98-161-259-250-361a4029 4029 0 0 0-633-553l-159-109a451 451 0 0 0-117-66c-14-22-547-324-691-391l-180-85c-55-26-131-60-170-76-38-15-71-32-73-37-1-5-14-7-27-4-17 3-27-1-31-12-3-9-10-13-15-10s-9 1-9-4-11-7-25-4c-17 3-27-1-31-12-3-9-10-13-15-10s-48-8-96-24c-49-16-121-38-160-48-40-10-73-21-73-24 0-4-13-5-30-2-16 2-30 0-30-5s-13-8-30-5c-16 2-30 0-30-4 0-5-45-8-100-6-66 2-100 0-100-7 0-6-9-11-20-11s-20 6-20 13-3 8-8 2c-11-16-52-18-52-3 0 9-3 9-10-2-6-10-10-11-10-2 0 7-15 12-39 12-22 0-42-5-44-12-4-10-8-10-15 1-7 10-32 13-106 9-53-2-96 0-96 4 0 13-28 9-33-4-4-10-8-10-15 1-7 9-19 11-37 7-16-4-31-3-34 3-4 6-45 12-91 13-47 2-88 8-92 13-4 6-28 10-53 9-25 0-45 3-45 8 0 4-11 6-25 2-16-4-25-2-25 6s-10 9-30 5-30-3-30 5-10 9-30 5-30-3-30 5-10 9-30 5-30-3-30 5-10 9-30 5-30-3-30 5-10 9-30 5-30-3-30 5-10 9-30 5-30-3-30 5c0 7-8 9-21 5-14-5-25-2-30 6-5 9-25 14-54 13-25 0-45 3-45 8 0 4-11 6-25 2-16-4-25-2-25 6s-10 9-30 5-30-3-30 5c0 7-8 9-21 5s-25-2-29 5c-12 20-82 41-112 34-20-4-28-2-28 8 0 8-21 20-47 28-27 7-75 24-108 37s-73 24-90 25c-16 1-36 7-43 15-8 7-18 11-23 7-11-6-79 17-79 27 0 4-9 5-20 2-16-4-19-2-14 11 4 11 1 16-13 16-10 0-27 6-38 13s-56 28-100 47-89 39-100 46c-26 15-75 28-97 25-10-1-18 4-18 12 0 10-7 13-19 10s-20 2-23 15c-3 10-16 22-30 25-13 4-66 30-118 58s-106 53-120 54c-37 3-37 3-43 24-3 13-11 18-23 15s-32 7-54 26a546 546 0 0 1-182 102c-11-2-18 3-18 12 0 18-38 41-61 38-9-2-19 6-22 17-3 14-11 18-26 14-14-3-21-1-21 8 0 20-256 185-280 181-12-2-20 2-20 11 0 19-249 183-272 179-10-2-18 3-18 11 0 19-260 203-282 199-10-2-18 3-18 10s-75 73-167 145l-243 193c-66 54-79 60-107 55-19-3-33-2-33 4 0 5-9 7-20 4s-20-1-20 4-13 8-30 5c-16-2-30-8-30-12s-10-5-22-3c-34 6-92-48-139-130-157-273-151-264-533-682a5675 5675 0 0 0-496-500c-104-91-305-231-345-241-14-3-25-9-25-13s-12-8-27-9c-16-1-29-6-31-12-2-5-10-6-18-3s-14 1-14-5-9-8-20-5-20 1-20-3c0-5-21-10-48-11-26-1-87-6-137-12-57-6-92-6-96 1-3 5-18 6-32 2-18-4-27-2-27 6s-10 9-30 5c-18-4-30-2-30 3 0 6-8 8-19 5-10-2-25 3-34 12s-45 29-80 45-106 57-158 92c-52 36-102 62-111 60-10-2-18 2-18 9s-49 62-108 123a1412 1412 0 0 0-252 336c-77 152-130 355-130 498 0 132 57 290 119 326 32 18 33 18 104-3 238-70 468-67 762 9 86 23 121 34 230 76l90 32a4000 4000 0 0 1 486 274l149 103c119 83 207 152 256 202 54 56 72 128 53 217l-13 61-306 305c-307 305-376 377-525 544l-108 120c-16 17-43 54-61 81-18 28-57 78-87 111-161 182-489 623-489 657a4727 4727 0 0 0-376 732l-27 70c-96 261-120 329-137 385l-50 170c-94 314-135 498-160 720-7 58-16 130-21 160-12 71-12 408 0 525 44 426 80 612 202 1060 80 291 237 679 344 850 17 28 42 71 55 98 22 42 177 270 229 337 20 26 23 29 111 130 30 34 194 195 364 357 367 350 506 459 688 539 118 52 216 64 376 44z" style="transform:none"/>
</svg>
