<svg xmlns="http://www.w3.org/2000/svg" style="max-height:366.88px;transform-origin:50% 50%;transform:none" viewBox="0 0 30000 30000">
  <path fill="#27D" d="M2050 27931c-12-24-9-25869 3-25888 7-10 2607-13 12948-13 12314 0 12940 1 12947 17 9 23 9 25863 0 25886-7 16-633 17-12947 17-12792 0-12940 0-12951-19zm16430-1171c107-6 238-17 292-25s140-15 190-15c51 0 120-5 153-10 33-6 130-14 215-20 155-9 275-25 778-100 293-44 297-45 787-125 633-104 728-124 1440-301 384-96 547-143 670-194 55-23 142-57 194-76 235-87 459-223 867-529 252-189 360-285 479-425 179-212 419-554 508-727s174-417 297-858c98-348 232-771 505-1595 140-421 279-851 309-956 111-386 217-841 265-1144 18-111 30-212 73-620 12-119 5-815-12-1070-27-415-91-816-231-1445-169-753-387-1502-594-2035-128-331-270-672-365-875-149-321-529-1085-593-1191-30-50-76-131-102-180-289-540-850-1401-1427-2186-142-194-188-263-188-285 0-16 29-157 65-314 142-625 147-715 59-1149-40-201-133-554-181-694-117-336-288-702-420-898a5148 5148 0 0 0-975-1115c-146-122-493-396-628-494-141-104-609-419-622-419a13769 13769 0 0 0-981-551 8704 8704 0 0 0-1129-479c-261-80-813-217-1033-255-178-31-444-40-760-24-159 7-318 13-352 13-35 0-63 4-63 8s-16 8-35 8-79 7-133 16c-53 8-112 13-129 10-18-2-35-1-38 4-3 4-22 10-42 13-112 16-200 30-213 35-8 3-60 13-115 22l-384 69c-287 52-351 59-351 41 0-5-4-10-10-10-5 0-10 9-10 19 0 16-9 21-45 27-25 3-58 4-75 2-20-3-30 0-30 9 0 7-12 15-27 19-414 95-772 202-1198 359-224 82-251 94-587 246-119 55-219 99-223 99s-91 46-193 101l-327 177c-390 210-1309 792-1739 1101-144 103-177 113-216 64-28-36-426-465-628-678a5325 5325 0 0 0-1032-865c-252-168-392-225-772-319-507-125-630-136-916-86-48 8-106 15-129 15-24 0-43 5-45 12-3 9-28 13-76 13-50 0-72 4-72 12 0 7-10 15-23 18l-127 30c-117 28-156 31-163 13-3-7-6-4-6 8-1 17-17 26-83 49-177 61-325 141-583 316a3323 3323 0 0 0-905 854c-331 444-403 592-530 1090-128 497-147 628-130 864 17 219 144 748 220 916 54 119 248 394 336 475 87 81 351 273 430 313 62 32 463 136 603 158 94 14 152 7 371-42 144-33 201-41 320-46 127-5 155-3 229 15 46 12 108 33 137 46 49 22 54 28 54 56 0 35-42 94-152 215-178 198-591 704-859 1055a8603 8603 0 0 0-888 1399 6823 6823 0 0 0-456 1116c-129 387-313 1073-415 1545a5203 5203 0 0 0-116 1473c19 227 66 611 95 770 59 319 264 1166 382 1574a6073 6073 0 0 0 735 1609c167 254 430 594 668 862 93 105 780 769 995 960 109 98 440 347 630 474 193 129 380 219 551 265 410 110 605 145 810 145 154 0 269-16 528-72 100-22 204-40 230-40 53 0 41-9 379 299 546 498 1228 1038 1932 1530 373 261 604 413 724 478 151 81 261 150 402 248a3029 3029 0 0 0 453 284c15 10 86 45 157 76 72 32 183 84 247 116 65 33 123 59 128 59 6 0 47 23 90 51 44 28 108 61 142 74 35 13 154 66 264 119 111 52 226 103 255 112 30 9 72 27 94 40 22 12 94 41 160 64s133 49 150 58a12239 12239 0 0 0 1265 401l320 81 103 24 130 30 157 36 130 30c19 5 96 18 170 30l255 40c66 10 208 24 315 30s242 15 300 20c168 16 177 17 340 18 85 1 243-3 350-8z" style="transform:none"/>
  <path fill="#4A90E4" d="M4890 14981c0-44 38-323 61-446 87-465 328-1243 559-1800 102-246 331-689 461-891 33-50 59-96 59-102 0-46 500-713 739-987 34-38 88-108 120-155 104-151 432-502 977-1050l533-535 16-78c40-200-31-283-545-639a7162 7162 0 0 0-827-489c-185-79-486-179-641-213-376-81-652-78-947 10-109 33-199 37-239 11-64-43-131-178-162-328-25-124-16-364 20-523 84-367 229-629 511-925 108-113 236-219 379-312 225-148 324-188 599-244l128-26 161 16c120 12 184 23 247 45 47 16 118 38 156 49 81 23 187 87 362 216 295 219 516 436 1125 1105 334 368 408 463 557 720 91 156 152 242 195 275 75 57 192 68 286 27 25-11 168-118 318-239 150-120 322-252 383-294 60-43 129-92 152-111 40-32 190-137 362-253 325-219 398-267 413-272 16-6 151-94 327-213 39-25 79-50 89-54 20-7 187-108 341-206 50-32 146-86 215-121s143-75 165-90c63-42 398-209 595-297l190-87c80-36 195-84 255-105 61-21 139-50 175-65 118-49 434-155 462-155 25 0 28 3 28 36 0 31-34 80-277 397-578 756-567 744-1994 2317-642 707-690 757-1275 1335-1866 1841-4625 4611-5244 5265-112 118-269 281-349 363-136 138-148 147-183 147s-38-2-38-29zm880-10951c0-6 13-17 30-23s29-18 27-26c-3-19 50-33 65-17 7 7 22 10 35 8 18-3 23 0 23 16s-10 23-47 32c-78 19-133 24-133 10zm350-88c0-6 6-15 13-19 8-4 16-16 20-25 7-19 61-26 71-9 4 5 14 8 24 6l23-4c4-1 9-10 12-21 6-23 31-26 70-7 38 17 35 43-5 50l-83 17c-87 19-145 23-145 12zm490-97c0-14 17-20 47-16 7 1 10-4 7-12s2-19 10-26c18-15 56-5 56 15 0 8 7 14 15 14 32 0 14 28-22 34-68 11-113 7-113-9zm7650-165c0-14 32-30 60-30 6 0 10-6 10-14 0-18 62-34 68-17 2 6 10 11 19 11 8 0 13 7 11 17-5 26-168 59-168 33zm190-50c0-5 7-10 15-10s15-9 15-20c0-17 7-20 40-20 22 0 40 5 40 10 0 6 7 10 15 10 24 0 18 27-7 34-37 9-118 7-118-4zm610-110c0-5 9-10 20-10 12 0 17-5 14-14-8-20 12-29 28-13 20 20 114 2 121-24 6-23 45-26 53-4 8 20 49 12 48-9-1-12 7-16 32-16 19 0 34 5 34 10 0 6 6 10 14 10 9 0 12-7 9-20-6-24 14-27 42-6 22 16 58 9 51-10-4-10 4-14 29-14 21 0 35 5 35 13 0 6 9 1 19-12 18-24 19-24 55-7 20 9 41 14 46 11 6-3 10 3 10 14 0 12-6 21-12 21-24 1-284 40-358 55-190 37-290 45-290 25zm2190-111c0-17 5-20 25-17 14 3 25 1 25-3 0-5 9-1 20 8 30 26 25 33-25 33-39 0-45-3-45-21zm-1480 3c0-6 6-15 13-19 8-4 16-16 20-25 7-20 47-24 65-6s72 21 72 3c0-23 32-36 51-20 8 8 26 16 40 18 13 2 25 11 27 19 3 16 0 16-220 35-45 3-68 2-68-5zm1400-17c0-8 7-15 15-15s15-4 15-10c0-5 9-2 20 7 29 25 25 33-15 33-24 0-35-5-35-15z" style="transform:none"/>
  <path fill="#7BAEED" d="M2042 27941c-18-11-12-75 8-79 9-1 20 9 27 28 6 16 18 30 27 30s16 7 16 15c0 17-55 21-78 6zm25838-4c0-8 8-17 19-20 12-3 20-17 25-46 4-27 11-41 22-41 12 0 14 11 12 58l-3 57-37 3c-28 2-38-1-38-11zM5096 17251a6937 6937 0 0 1-213-1151c-15-117-18-224-18-560 0-454 9-575 46-598 18-11 19-10 13 13-3 14-2 25 3 25 11 0 246-238 503-510 619-654 3378-3424 5244-5265 585-578 633-628 1275-1335 1175-1296 1332-1472 1566-1765 169-211 705-911 705-920 0-3-16 2-36 10-49 20-64 19-64-5 0-16 7-20 35-20 19 0 35-4 35-10 0-5 5-10 11-10s25-6 42-14c76-32 409-102 842-176 368-63 542-95 620-115 28-8 112-16 188-19 75-3 168-11 205-16 41-7 238-9 517-7 549 4 555 4 945 123 80 24 165 52 190 63 105 43 158 63 205 77 28 8 98 36 158 61 105 45 107 46 107 78 0 28-18 53-128 172-71 76-754 760-1518 1520-1277 1270-1667 1666-2035 2063-666 718-1794 1965-2769 3060l-573 644-531 450-901 764c-297 251-444 367-745 586l-1235 898-1500 1089c-1207 877-1110 809-1151 809-18 0-35-4-38-9zm1457-9614c-53-12-60-42-13-49 17-3 30-1 30 3s19 13 42 21c90 28 41 50-59 25zM2036 2104c-11-84-11-84 39-84 37 0 45 3 45 19 0 10-8 21-19 24-12 3-20 17-25 46-9 57-32 54-40-5zm25888 5c-5-29-13-43-25-46-11-3-19-14-19-24 0-15 7-19 34-19 40 0 46 11 46 81 0 37-4 49-15 49-10 0-17-14-21-41z" style="transform:none"/>
  <path fill="#BCC0C4" d="m2035 29983-447-108c-235-57-433-107-440-111-20-12-208-147-369-266-162-119-186-147-425-477l-118-164-113-475-113-474V2103l113-474 113-474 134-185c239-331 236-328 387-442 188-142 375-275 404-287 13-6 234-60 491-121l468-110h25761l467 110c257 61 478 115 491 121 25 10 132 86 382 271 162 119 186 147 425 477l118 164 113 475 113 474v25806l-113 474-113 475-118 164c-239 330-263 358-425 477a4621 4621 0 0 1-382 271c-13 6-225 58-470 116l-446 105-12934-1c-7114-1-12943-4-12954-6zm25975-1173c47-11 94-24 105-29s38-12 60-14c46-6 149-43 168-60 6-7 24-18 40-24 15-7 27-17 27-23 0-5 6-10 13-10 6 0 28-15 48-33l60-53a1175 1175 0 0 0 129-154c0-3 8-15 18-26 29-33 52-81 52-107 0-14 4-27 10-29 5-1 27-70 47-153l38-150 3-12915 3-12915-27-110c-15-60-31-114-35-119-5-6-9-24-9-41 0-87-90-255-206-384-53-59-245-201-273-201-10 0-31-6-47-14s-59-17-96-21-70-11-73-16c-4-5-21-9-40-9s-37-4-40-10c-4-7-471-10-1369-10-749 0-1366-3-1370-7-8-8-23186-10-23186-2 0 3-27 9-61 12-41 3-65 11-73 23-11 14-22 16-64 11-39-4-52-3-56 9-3 9-20 14-43 14-58 0-111 18-118 40-9 29-33 50-56 50-22 0-49 22-49 39 0 6-11 11-24 11s-35 9-49 20a95 95 0 0 1-36 20c-6 0-11 11-11 25s-4 25-9 25-13 9-16 20c-4 11-17 32-31 47-13 14-24 33-24 41 0 21-40 62-60 62-14 0-18 12-23 58-2 31-22 129-43 217l-39 160v25860l37 158c38 164 82 272 133 333 6 6 19 25 30 40 40 57 89 105 159 158a745 745 0 0 0 316 151c63 15 135 33 160 41 37 10 2318 13 12980 13 12904 1 12935 1 13020-19z" style="transform:none"/>
  <g fill="#99C6F9" style="transform:none">
    <path d="M1995 28849c-16-6-43-12-60-15-93-16-238-61-294-91a913 913 0 0 1-328-288c-7-8-13-16-13-20 0-8-43-69-53-73-4-2-5-8-1-13 3-5 1-9-3-9-5 0-9-8-10-17-1-10-7-31-14-48-7-16-11-35-10-42 1-6-3-14-8-18-6-3-8-12-4-20 3-8 0-15-6-15-7 0-9-9-5-25 3-14 2-25-4-25s-8-9-5-20 0-20-6-20c-7 0-9-9-5-25 3-14 2-25-4-25-5 0-7-11-4-25 2-14 0-25-6-25s-8-9-5-21c4-12 0-25-8-30-12-8-12-11 1-19 8-5 11-10 5-10-7 0-10-4317-10-12930 0-7287 4-12930 9-12930 4 0 6-9 3-20s-1-20 5-20 8-9 5-20-1-20 5-20 8-9 5-20-1-20 5-20 8-9 5-20-1-20 5-20 7-11 4-25c-4-16-2-25 5-25 6 0 9-9 6-20s-1-20 5-20 7-11 4-25c-4-16-2-25 5-25s9-9 5-25c-4-15-2-25 4-25 7 0 10-17 8-42-3-36 0-43 17-46 27-5 65-42 65-63 0-10 5-21 10-24 6-4 8-10 5-15s4-11 15-15c11-3 20-12 20-20 0-7 7-21 16-30 9-8 13-22 10-31s1-17 12-21c9-4 32-17 49-31 19-14 39-22 49-18 12 4 15 2 10-9-3-9 0-15 10-15 8 0 13-4 9-9-5-9 24-23 41-20 21 3 35-2 29-11-3-6-1-10 5-10s8-4 5-10c-3-5-1-10 6-10s9-3 6-7c-13-12 38-29 93-32 36-1 59-7 67-17 8-12 25-15 60-12 27 2 48-1 49-7 0-12 44-22 102-24 23 0 42-4 42-8 0-10 23237-9 23247 0 3 4 618 7 1366 7 1056-1 1362 2 1374 12 11 9 16 9 22 0 5-8 16-6 39 8 17 11 39 17 47 14 8-4 21-2 28 3 6 5 28 10 47 12 19 1 47 8 64 16 16 8 37 15 47 15 28 0 220 142 273 201 112 125 197 280 210 383 2 17 6 38 9 46 4 8 18 61 32 117l25 102-2 12948-3 12948-38 150c-20 83-41 151-47 153-5 2-6 10-4 17 6 14-30 88-54 113-6 8-17 23-23 35-13 23-22 34-59 76l-46 52a805 805 0 0 1-127 108c-5 2-18 12-28 22-11 11-26 19-34 19s-15 4-15 9c0 18-193 86-212 75-5-3-14-1-21 4s-53 19-103 31l-91 21-12964-1c-8338 0-12975-4-12994-10zm25933-13844c1-7100 0-12919-2-12930-5-20-13-20-12933-20H2065v12925c0 8605 3 12927 10 12932 6 4 5824 7 12930 5l12920-2 3-12910z"/>
    <path d="M5107 17273c-10-10-8-71 2-77 5-3 11 4 14 16 8 29-123 121 1127-787l1560-1133 1180-858c301-219 448-335 745-586l901-764 531-450 573-644c975-1095 2103-2342 2769-3060 368-397 758-793 2035-2063 764-760 1447-1445 1518-1521 127-137 129-140 106-152-22-13-22-13 15-14 37 0 37 0 37 40 0 35-8 49-69 117-38 43-623 632-1302 1308-1853 1849-1908 1906-2729 2800-753 820-1537 1689-2331 2580l-520 582c-58 64-362 328-979 849l-894 757-916 665-2595 1885-611 444c-72 51-110 73-131 73-16 0-33-3-36-7z"/>
  </g>
  <g fill="#ABCBF2" style="transform:none">
    <path d="M27960 28843c0-9 6-13 15-10 8 3 44-2 80-12s65-15 65-10c0 8-35 19-117 37-36 8-43 7-43-5zm210-42c0-5 12-11 28-14a816 816 0 0 0 351-206c35-33 65-61 67-61 10 0-17 40-43 63a747 747 0 0 1-143 117c-11 11-27 20-35 20s-15 4-15 9c0 10-75 43-149 65-64 19-61 18-61 7zm-26532-57c-39-21-35-28 5-8 37 19 44 24 31 24-5-1-21-8-36-16z"/>
    <path d="M1564 28698c-41-30-52-42-29-30 26 15 72 51 64 52-4 0-19-10-35-22zm-129-102c-39-35-68-65-65-68 3-2 36 27 75 64 38 38 67 68 64 68s-36-29-74-64zm-205-287c0-8-7-26-14-41-8-15-11-30-7-33 9-5 35 74 27 83-3 3-6-1-6-9zm27510-1c0-26 25-78 38-78 9 0 11 7 6 23-3 12-10 23-14 25s-6 12-3 22c4 14 0 20-11 20-9 0-16-5-16-12zm30-102c0-9 7-16 16-16s14 5 12 12c-6 18-28 21-28 4zM6513 19903a6291 6291 0 0 1-385-408 6598 6598 0 0 1-357-523l-101-177c-177-305-396-865-520-1328-48-179-60-257-41-257 5 0 15 9 22 20 13 18 18 16 114-54l610-443 2595-1885 916-665 894-757c617-521 921-785 979-849l520-582c1128-1267 2530-2809 3110-3420 62-66 833-840 1711-1720 879-880 1601-1610 1605-1623 5-17 2-27-12-37-16-13-14-14 24-15 45 0 133 38 456 197a13751 13751 0 0 1 1020 576c13 5 17 18 17 55 0 27-3 52-7 56-12 11-43 119-43 149 0 15-4 27-10 27-5 0-10 13-10 29 0 17-4 33-10 36-5 3-10 16-10 29 0 12-4 26-9 31-12 14-41 118-41 149 0 14-4 26-10 26-5 0-10 13-10 28s-4 32-9 37c-13 15-41 105-41 132 0 13-4 23-10 23-5 0-10 10-10 22s-4 35-9 52l-21 74c-6 23-23 57-39 75-31 35-61 92-61 114 0 21-27 69-54 96-32 32-76 120-76 150 0 13-15 43-32 67-49 64-76 112-77 138-1 12-5 22-11 22-5 0-10 8-10 19 0 10-13 32-30 49-34 36-80 123-80 152 0 11-9 25-20 32s-20 20-20 29c0 17-30 49-47 49-11 0-63 56-63 68 0 13-63 78-83 85-9 4-20 15-24 24-4 10-13 24-20 31s-13 20-13 28-6 14-13 14c-16 0-67 51-67 67 0 6-3 13-7 15-5 2-33 32-63 68l-60 70-16 25c-6 11-21 25-32 31-32 16-62 45-62 60 0 7-3 14-7 16-5 2-33 32-63 68l-60 70-16 25c-6 11-21 25-32 31-32 16-62 45-62 60 0 7-3 14-7 16-13 5-127 140-138 162-6 11-20 26-33 32-31 16-62 45-62 60 0 7-3 14-7 16-13 5-127 140-138 162-6 11-20 26-33 32-28 14-62 45-62 56 0 5-13 23-30 41-16 18-30 35-30 40 0 4-12 12-26 17-14 6-28 19-31 30s-9 20-13 20c-5 0-10 10-12 22s-14 28-28 35c-13 7-30 20-37 29-27 36-89 110-120 143-18 18-33 39-33 45 0 15-42 56-56 56-12 0-54 42-54 53 0 8-44 60-97 115-18 19-33 40-33 46 0 15-42 56-56 56-12 0-54 42-54 53 0 8-44 60-97 115-18 19-33 40-33 46 0 15-42 56-56 56-13 0-54 43-54 56 0 6-31 43-70 84-38 41-70 79-70 85 0 14-42 55-56 55-13 0-74 63-74 76 0 6-45 57-100 114a723 723 0 0 0-100 115c0 14-52 65-66 65s-74 63-74 78c0 7-4 12-10 12-5 0-10 4-10 8 0 5-43 53-95 108-52 54-95 104-95 110 0 13-53 64-66 64-15 0-71 62-79 88-3 12-10 22-15 22-7 0-116 120-209 230-18 22-39 40-45 40-14 0-66 51-66 66 0 5-48 59-105 119a952 952 0 0 0-105 121c0 13-63 74-76 74s-64 53-64 66c0 5-43 54-95 109s-95 103-95 108c0 13-82 97-95 97s-50 38-56 57c-5 15-178 202-251 272-32 29-58 59-58 65 0 15-672 686-687 686-6 0-31 23-56 50a207930 207930 0 0 0-751 745 40636 40636 0 0 1-760 745c-10 0-616 605-616 615 0 14-183 195-196 195-6 0-41 32-78 70a33815 33815 0 0 0-345 340 7146 7146 0 0 1-301 290c-6 11-16 20-23 20-15 0-267 251-267 265 0 13-202 215-215 215-6 0-142 131-304 290a8201 8201 0 0 1-321 310c-6 11-16 20-23 20-15 0-277 261-277 275 0 13-192 205-205 205-6 0-145 133-309 295a8056 8056 0 0 1-308 295c-4 0-12 9-18 20s-16 20-23 20c-15 0-267 251-267 265 0 13-202 215-215 215-6 0-142 131-304 290a6674 6674 0 0 1-311 300c0 6-4 10-8 10-5 0-66 56-136 125a1767 1767 0 0 1-156 140c-7 9-29 15-51 15-36 0-50-12-336-297zM1224 1621c4-6 14-11 23-11s26-8 37-17l21-17-20 21c-22 23-72 43-61 24zm27342-200-40-46 44 42c24 23 42 44 40 46-3 2-23-17-44-42zm-27181-11c-3-6 2-13 12-17s32-17 49-30c41-31 67-30 29 1-50 41-83 57-90 46zm145-110c8-5 22-10 30-10 13 0 13 1 0 10-8 5-22 10-30 10-13 0-13-1 0-10zm80-50c8-5 11-10 5-10-23 0 42-26 70-27l30-2-25 11-54 25c-34 15-48 17-26 3zm26576-48c-3-5 8-6 25-4 16 2 29 6 29 8 0 8-49 4-54-4zm-26406-12c0-5 21-10 48-10 34 0 43 3 32 10-20 13-80 13-80 0zm26345 0c-3-5 1-10 9-10s18 5 21 10c3 6-1 10-9 10s-18-4-21-10zm-155-40c-21-7-21-8-5-9 11 0 27 4 35 9 18 11 5 11-30 0zm-25940-10c0-6 97-10 273-9 161 0 264 4 252 9-29 12-525 12-525 0zm20510 0c0-7 462-10 1366-10 907 0 1363 3 1359 10-9 14-2725 14-2725 0z"/>
  </g>
  <g fill="#E3EEFC" style="transform:none">
    <path d="M17770 26783c-73-7-100-14-100-27 0-14 42-26 86-26 13 0 24 4 24 10 0 5 21 7 50 3 49-6 50-5 50 21 0 28-9 29-110 19zm700-18c0-22 4-25 39-25 67 0 101 11 101 31 0 17-8 19-70 19-68 0-70-1-70-25zm160-10c0-26 1-26 75-23 56 2 78-1 84-11 6-9 23-12 55-10 25 2 46 1 46-3 0-10 175-11 219-2 36 8 41 29 9 38-13 3-68 6-123 6s-143 7-195 15-112 15-132 15c-34 0-38-3-38-25zm-1077 0c-8-22-3-25 56-32 50-6 51-5 51 21 0 25-3 26-50 26-36 0-52-4-57-15zm-153-14c0-19 34-31 86-31 19 0 24 5 24 25 0 24-3 25-55 25-47 0-55-3-55-19zm-170 4-52-10c-66-11-40-44 35-45 15 0 27 3 27 8 0 4 20 6 45 4 43-4 45-3 45 22 0 24-3 26-42 25l-58-4zm2140-47c0-24 2-25 123-35l156-12c19 0 37-5 40-10 8-12 133-25 160-16 32 10 25 33-11 40-87 14-331 46-395 52-73 6-73 6-73-19zm-2402 5c-10-2-18-10-18-18 0-14 30-25 73-25 22 0 27 4 27 25 0 22-4 25-32 24-18-1-41-3-50-6zm-153-24-85-18-77-16c-35-7-44-29-17-39 25-10 74-7 74 4 0 6 20 10 45 10s45 5 45 10c0 6 25 10 55 10 52 0 55 1 55 25 0 28-19 31-95 14zm3115-49c0-11 6-20 14-20s16-5 18-10c2-6 47-13 101-17 53-3 97-10 97-15 0-4 29-8 65-8 38 0 65-4 65-10s25-10 61-9c38 1 64-2 68-10 5-7 45-14 97-18 49-3 91-9 94-13 7-9 140-30 194-30 25 0 46-4 46-10 0-11 69-14 94-4s19 32-11 38l-403 65c-143 23-588 91-595 91-3 0-5-9-5-20zm-3430-20-238-56-112-25c-75-15-110-30-110-45 0-10 13-14 44-14 60 0 106 10 106 24 0 7 14 10 40 8 25-3 40 0 40 7 0 6 9 11 20 11s20 4 20 9 20 6 45 3c30-3 45-1 45 7 0 6 9 11 20 11s20 4 20 9 20 6 45 3c30-3 45-1 45 7 0 6 9 11 20 11 13 0 20 7 20 20 0 22-11 23-70 10zm4680-179c0-11 6-21 14-21s16-5 18-10c2-6 37-12 78-13 62-2 75 1 78 15 3 17-31 27-140 43-44 7-48 6-48-14zm-5527-29c-109-30-125-52-38-52 38 0 55 4 55 13s12 11 40 9c39-4 40-3 40 27 0 17-1 31-2 30l-95-27zm5807-22c0-11 7-20 15-20s15-5 15-11 19-9 47-7c35 2 49 7 51 20 2 12-9 19-48 27-70 15-80 14-80-9zm200-40c0-11 7-20 15-20s15-4 15-8c0-13 94-32 156-32 39 0 54 4 54 14 0 9-35 22-105 40-126 31-135 32-135 6zm580-136c0-8 6-21 13-28 14-15 94-36 136-36 16 0 31-5 33-10 2-6 29-14 61-17 31-3 57-10 57-14 0-5 29-9 65-9 48 0 65 3 65 14 0 9-62 29-205 65-112 28-209 51-215 51-5 0-10-7-10-16zM8340 22551c0-14 6-21 20-21 11 0 20-4 20-10 0-11 51-13 99-4 21 5 31 12 31 25 0 16-8 19-54 19-29 0-68 3-85 6-27 6-31 4-31-15zm-250 2c-264-43-300-51-300-69 0-25 48-26 162-5 62 12 123 21 136 21 12 0 22 4 22 10 0 5 21 7 50 3 49-6 50-5 50 21 0 25-2 26-47 25-27-1-59-4-73-6zm430-23c0-13 7-20 20-20 11 0 20-3 20-8 0-10 249-55 280-51 14 2 26 11 28 21 2 13-15 20-90 37-212 47-258 50-258 21zm-885-70c-101-26-184-48-242-66-13-3-23-13-23-20 0-10 15-14 55-14 30 0 55 4 55 10 0 5 17 12 38 15 81 12 232 49 232 57 0 4 7 8 15 8s15 9 15 20c0 26-11 25-145-10zm1255 6c0-34 13-46 50-46 80 0 96 31 26 49-59 15-76 14-76-3zm-875-1396c-131-34-264-96-405-188-158-102-308-227-617-515-150-138-173-164-173-190 0-25 2-28 15-17 13 10 19 10 33-4 10-9 21-16 24-16s63-56 134-125c70-69 131-125 136-125 4 0 8-4 8-10a6674 6674 0 0 0 311-300c162-159 299-290 304-290 6 0 57-47 115-105s100-105 95-105 51-61 125-135 140-135 147-135 17-9 23-20 14-20 18-20c5 0 143-133 308-295 164-162 304-295 309-295 6 0 55-45 110-100s95-100 90-100 53-63 130-140 145-140 152-140 17-9 23-20 14-20 19-20c4 0 140-130 302-290 162-159 299-290 304-290 6 0 57-47 115-105s100-105 95-105 51-61 125-135 140-135 147-135 17-9 23-20 14-20 19-20c4 0 131-121 282-270a33815 33815 0 0 1 423-410c6 0 54-43 106-95s90-95 85-95 131-139 303-310a14619 14619 0 0 1 371-360c5 0 323-313 707-695a207930 207930 0 0 1 807-795c15 0 687-672 681-681-2-4 20-29 49-56 29-26 55-51 56-54 2-4 45-50 95-103 51-53 90-96 87-96s4-7 15-15c10-8 15-15 10-15-14 0 45-60 59-60 16 0 87-75 79-83-4-4-1-7 6-7s11-2 9-5c-3-2 36-47 86-100 50-52 89-97 87-100-3-3 1-5 8-5s10-3 6-7c-8-8 53-73 69-73 13 0 74-61 75-75 1-5 47-59 103-119 56-59 101-111 100-115-3-9 59-71 72-71 16 0 77-65 69-73-4-4-1-7 6-7s11-2 9-5c-3-2 36-47 86-100 50-52 89-97 87-100-3-3 1-5 8-5s10-3 6-7c-8-8 63-83 79-83 13 0 67-54 61-61-3-3 40-51 95-109 54-57 99-107 99-112 0-4 5-8 12-8 6 0 8-3 4-7-8-8 63-83 79-83 14 0 58-46 61-63 1-6 44-56 96-109 52-54 92-100 90-103-3-3 1-5 8-5s10-3 6-7c-8-8 63-83 79-83 14 0 57-44 50-51-2-3 26-37 64-77 37-39 66-74 63-77s1-5 8-5 10-3 7-7c-9-8 42-63 58-63 14 0 48-36 51-53 1-7 17-28 35-47 58-60 100-110 92-110-4 0 6-13 22-30 16-16 34-30 40-30 14 0 48-36 51-53 1-7 17-28 35-47 58-60 100-110 92-110-4 0 6-13 22-30 16-16 34-30 40-30 14 0 48-36 51-53 1-7 17-28 35-47 44-46 90-100 85-100-9 0 57-65 77-75 11-5 21-19 23-29 1-10 9-23 16-27 7-5 9-9 4-9s-1-9 9-20 24-20 30-20c7 0 19-10 28-22 8-13 25-33 36-45 12-13 19-23 15-23s5-13 21-30c16-16 34-30 40-30 7 0 20-9 30-20s15-20 10-20c-4 0 12-22 36-48 84-91 109-122 102-122-4 0 6-13 22-30 16-16 34-30 40-30 7 0 20-9 30-20s15-20 10-20c-4 0 12-22 36-48 84-91 109-122 102-122-4 0 6-13 22-30 16-16 34-30 40-30 14 0 52-40 39-40-5 0-2-6 6-13s40-41 70-77 59-68 65-72 6-8 1-8c-6 0 3-13 19-30 16-16 34-30 40-30 14 0 52-40 39-40-5 0-2-6 6-13s40-41 70-77 59-68 65-72c6-5 6-8 1-8-6 0 5-16 24-35s40-35 48-35c7 0 11-4 8-8-3-5 4-19 15-30 11-12 17-22 13-22s1-9 11-20 22-20 28-20c12 0 66-58 59-65-3-3 0-5 6-5 7 0 11-3 10-7-4-12 53-73 67-73 15 0 38-27 41-47 1-8 10-20 20-27 9-7 19-23 21-35 5-32 51-120 78-147 12-12 20-25 17-28s0-6 7-6 10-4 6-9c-3-6 1-16 8-23 8-7 12-20 10-28-3-9 3-22 11-29 9-8 16-19 16-27 0-7 14-29 31-49 17-19 27-35 23-35-5 0-1-5 9-11 9-6 15-14 12-20-4-5-2-9 2-9 5 0 10-11 11-25 2-33 48-122 77-151 12-12 20-25 17-28s0-6 7-6 9-4 6-10c-3-5-1-10 5-10s8-4 5-10c-3-5-2-10 3-10 6 0 8-8 5-18-2-10 3-24 11-31 9-8 16-19 16-27 0-7 13-29 30-47 16-19 27-37 23-41-3-3-1-6 6-6s9-4 6-10c-3-5-1-10 5-10s9-4 5-9c-3-5-1-12 4-15s7-15 4-26 0-27 7-35c6-7 14-29 17-47s10-36 16-40c7-4 9-8 5-8-7 0 15-81 34-129 6-14 10-36 9-49-1-12 4-25 13-28s13-10 11-15c-5-8 30-141 44-164 3-5 6-16 7-23l10-30c4-9 6-27 5-40-1-12 4-25 13-28s13-10 10-15c-4-8 20-98 43-159 13-35 12-51-5-57a10259 10259 0 0 0-630-370c-251-140-565-296-832-414-180-79-220-109-146-109 25 0 36 4 36 15 0 10 11 15 35 15 27 0 35 4 35 19 0 14 10 19 48 24 46 5 163 53 170 70 2 4 10 7 18 7a5073 5073 0 0 1 482 234c34 16 62 32 62 35s20 14 45 24c25 11 45 22 45 26s16 13 35 20 40 18 47 24c7 7 32 21 56 31 23 11 42 22 42 26 0 3 16 12 35 19s35 16 35 20 16 13 35 20 35 17 35 22 6 9 14 9 21 6 28 13 28 19 46 26c17 7 32 17 32 22s6 9 14 9 21 6 28 14c8 7 24 17 36 20 12 4 22 12 22 17s7 9 15 9 15 5 15 10c0 6 7 10 15 10s15 5 15 10c0 6 7 10 15 10s15 5 15 10c0 6 9 10 20 10s20 5 20 10c0 6 6 10 14 10 13 0 206 126 401 263 352 248 844 699 1021 937 215 289 285 420 446 825 115 293 148 442 155 700 5 165 2 207-17 319-27 162-50 229-171 507-54 124-127 300-163 391a7572 7572 0 0 1-448 978c-105 182-369 612-459 746-242 361-1253 1639-1554 1964-171 184-832 858-1980 2021l-1625 1647c-456 465-471 478-800 751-629 521-794 648-1463 1130-761 547-816 581-1502 932a4801 4801 0 0 1-675 301c-228 78-715 228-1198 369-244 71-494 149-555 173-170 66-434 137-617 166-113 17-394 12-475-10zm-1319-980c-37-39-47-55-44-77 3-27 5-26 83 49l80 77-36 1c-29 0-43-8-83-50zm-339-328a89 89 0 0 1-27-55c0-22-5-27-23-27-13 0-37-15-56-34-25-26-32-40-29-66 3-32 3-32 116 89l114 121h-34c-24 0-42-8-61-28zm-237-282c0-11-7-20-15-20-11 0-15-11-15-37l1-38 35 40c57 64 60 75 24 75-23 0-30-4-30-20zm-140-205c0-39 6-43 27-17 35 44 35 52 3 52-28 0-30-3-30-35zm-250-391c0-42 13-41 41 4l21 32h-31c-29 0-31-2-31-36zm-110-190c0-42 13-41 41 4l21 32h-31c-29 0-31-2-31-36zm-94-160c-11-28-7-74 7-74 12 0 47 59 47 80 0 17-47 11-54-6zm-106-269c0-42 21-47 38-10s15 45-13 45c-22 0-25-4-25-35zm-60-150c0-42 21-47 38-10s15 45-13 45c-22 0-25-4-25-35zm-60-160c0-42 21-47 38-10s15 45-13 45c-22 0-25-4-25-35zm-110-330c0-42 25-48 40-9 15 38 13 44-15 44-22 0-25-4-25-35zm-44-136c-3-17-6-43-6-56 0-42 31-23 46 27 18 59 18 60-10 60-18 0-25-7-30-31zm-40-150c-10-53-7-79 9-79s28 23 40 78c6 29 5 32-18 32-19 0-26-6-31-31zm64-8270c-76-13-281-63-430-105-167-47-272-104-191-104 32 0 163 38 171 50 3 4 27 10 54 14 28 3 52 10 55 15 4 4 29 11 56 15 28 3 52 11 53 16 2 6 12 10 23 10 10 0 19 5 19 10 0 6 11 8 25 4 26-6 196 24 205 37 10 13 198-10 350-45 85-19 192-40 238-46 156-21 387 3 429 45 7 8 13 22 13 33 0 19-3 19-77-6-70-24-93-26-218-26-128 0-155 4-325 43-199 46-344 59-450 40zm4460-1296c-89-13-180-52-180-75 0-15 101-2 111 14 6 9 25 9 86 0 168-26 262-7 161 31-36 14-148 40-152 36l-26-6zm856-560c-15-16-4-70 19-96 23-24 33-27 92-27s64 2 52 16a660 660 0 0 1-163 107zm444-332c0-12 5-31 12-44l18-37c9-19 42-28 109-29 65-1 61 8-39 74-88 58-100 63-100 36zm380-258c0-17 8-33 20-41 11-7 20-19 20-27s8-15 18-15c9 0 22-10 27-22 6-12 21-25 35-29 37-10 130-10 130 0 0 9-105 81-119 81-5 0-31 15-57 33-76 52-74 51-74 20zm510-324c0-12 7-36 16-55 13-28 22-34 48-34 23 0 34-6 41-22 7-15 20-24 40-26 62-5 74-11 77-40 3-24 9-28 58-39 65-13 120-16 120-5 0 4-26 23-58 43a4222 4222 0 0 1-315 188c-24 9-27 8-27-10zm510-320c0-17 6-36 13-43 17-17 73-46 89-46 7 0 22-12 33-26 17-22 31-27 86-31 80-7 93 6 45 42-36 27-240 135-256 135-6 0-10-14-10-31zm-6600-275c0-38 5-54 27-76 23-24 35-28 80-28 37 0 53 4 53 13 0 7-30 38-67 68-97 78-93 77-93 23zm7160-10c0-17 6-24 19-24 14 0 21-8 23-27 2-20 9-29 24-31 12-2 30-12 40-23 14-15 30-19 86-19 100 0 91 19-39 82-146 70-153 72-153 42zm650-314c0-33 3-40 19-40 11 0 35-9 54-20 18-11 56-23 83-27 27-3 60-13 72-21 14-9 56-17 103-20 66-4 79-2 79 10 0 9-15 20-37 26-21 6-72 25-113 42-89 38-234 90-249 90-6 0-11-18-11-40zm-7300 12c0-29 10-52 23-52 6 0 27-11 47-25 25-17 56-27 100-31 36-4 70-10 75-15 6-4 59-11 118-15 104-7 107-6 107 14 0 24 2 24-160 57-110 22-239 57-292 80-14 5-18 2-18-13zm917-13c-175-52-204-72-123-84 42-7 107 7 131 27 5 4 19 8 32 8s26 7 29 15c4 8 12 15 20 15s14 10 14 25c0 14-1 25-2 24l-101-30zm6863-155c0-15 6-24 15-24s18-7 21-15c4-9 20-15 43-15 26 0 44-8 64-29 23-23 39-29 86-33 35-2 79-15 112-30 31-15 82-30 119-34 36-3 70-10 75-14 6-4 55-13 110-19 55-7 104-16 109-21 6-6 25-10 42-10 18 0 35-4 38-9s44-12 91-16 87-10 90-15c3-4 43-11 90-15s87-10 90-15c2-4 42-11 87-15 46-4 88-10 93-15 6-4 57-13 115-20s110-16 116-21 46-10 90-12c64-2 79 1 82 14 5 26-111 52-683 149-395 68-765 144-830 171-11 5-75 26-142 48l-123 39v-24z"/>
    <path d="m17905 5090-120-45-132-49c-46-15-63-26-63-38 0-14 8-18 35-18 19 0 35 5 35 10 0 6 17 10 38 10 20 0 51 9 67 20 17 11 42 20 58 20 15 0 36 9 47 20 12 12 34 20 53 20 40 1 67 20 67 49 0 26-17 26-85 1zm-416-144a2578 2578 0 0 0-516-113c-52-4-63-8-63-24 0-23 70-35 126-20 21 5 76 13 122 17 45 4 85 11 88 15 3 5 14 9 25 9 10 0 19 4 19 9 0 4 24 11 52 14 29 4 54 11 56 17 2 5 15 10 29 10s43 5 64 12c31 9 39 16 39 35 0 16-6 23-18 23-10 0-21-2-23-4zm-1649-109c0-29 9-31 224-47 159-12 206-7 206 21 0 16-8 19-42 19-24 0-68 4-99 9-30 5-108 13-172 17l-117 7v-26zm522-34c3-26 6-28 53-28s50 2 53 28c3 27 3 27-53 27s-56 0-53-27zm150 0c4-33 26-40 141-42 100-1 157 15 157 46 0 23-1 23-151 23h-150l3-27z"/>
  </g>
  <path fill="#FFF" d="M17898 26793c-27-2-48-7-48-11s-22-5-50-4c-27 2-50 0-50-5 0-4-27-6-60-5-36 2-60 0-60-6 0-7-11-8-27-3-36 10-116 2-125-13-6-8-8-7-8 2s-20 11-82 7c-46-4-84-10-86-15-2-4-21-6-44-3-28 4-43 2-49-8-5-8-9-9-9-3 0 12-170-10-180-24-3-4-34-7-68-8-35-1-67-5-70-10-4-5-29-10-56-11s-52-5-55-10c-3-4-24-9-46-10-22-2-41-7-43-12-2-6-10-7-18-4-19 7-164-27-164-39 0-5-5-6-11-2-14 8-119-16-119-28 0-5-5-6-11-2-12 7-119-15-119-25 0-3-17-6-37-7-20 0-38-5-40-11s-13-9-23-6c-11 3-20 1-20-4s-12-8-27-7c-33 1-363-81-372-93-3-4-21-9-40-10-18-1-36-5-40-10-3-4-21-9-40-11-19-1-66-13-105-26l-226-71a11977 11977 0 0 1-965-349c-22-13-64-31-94-40-29-9-144-60-255-112-110-53-229-106-264-119-34-13-98-46-142-74-43-28-84-51-90-51-5 0-63-26-128-59-64-32-175-84-247-116-71-31-142-66-157-76a3029 3029 0 0 1-453-284c-141-98-251-167-402-248-120-65-351-217-724-478a19688 19688 0 0 1-1932-1530l-245-221-86-76-76 1c-53 2-78 6-87 17-8 10-29 15-67 14-31 0-56 4-56 8 0 5-11 6-25 2-16-4-25-2-25 5s-9 9-25 5-25-2-25 5-9 9-25 5c-19-5-25-2-25 10 0 13-4 14-26 4-17-8-28-9-32-2-13 21-96 34-137 23-29-8-40-8-46 3-12 20-217 18-229-2-7-11-10-11-10-2 0 10-11 11-42 7-24-4-44-10-46-14-1-4-18-5-37-3-25 3-35 0-35-9 0-11-2-11-8-2-8 13-52 7-52-7 0-4-11-5-25-2-14 2-25 0-25-5 0-6-11-8-25-5-14 2-25 0-25-6s-9-8-20-5c-23 6-110-16-110-27 0-5-9-6-20-3s-20 1-20-5-9-8-20-5-20 1-20-5-9-8-20-5c-13 3-20 0-20-8 0-12-2-12-9-1s-10 11-22 0c-8-7-25-13-39-14-36-1-80-15-80-25 0-5-6-6-14-3-45 17-319-112-517-244a8072 8072 0 0 1-630-474c-215-191-902-855-995-960-317-358-648-803-812-1093a6108 6108 0 0 1-389-795c-128-312-215-596-363-1195-197-797-237-998-289-1460l-26-225c-3-25-8-189-10-365-4-350 3-461 55-820 63-444 294-1366 485-1940 166-501 248-700 456-1116 231-464 522-921 888-1399a22801 22801 0 0 1 967-1182l45-57-53-27c-29-15-54-30-56-35-2-4-10-5-18-2s-14 0-14-6-7-8-15-5c-8 4-15 2-15-4s-9-8-20-5-20 1-20-4-16-7-35-5-35 0-35-4c0-5-34-10-75-10-44-1-75 3-75 9s-16 7-40 3c-26-4-40-2-40 5s-11 8-30 4-30-3-30 4-10 9-25 5c-20-5-25-2-26 12 0 11-3 14-6 7-6-15-33-17-33-3 0 6-11 8-25 4-14-3-25-2-25 4s-9 8-20 5-20-1-20 5-9 8-20 5-20 0-20 6c0 7-9 9-25 5s-25-2-25 5-9 9-26 5c-18-5-29-1-38 12-12 15-17 16-45 5-21-9-46-11-78-5-57 9-85 6-95-10-6-8-8-8-8 1 0 6-9 9-20 6s-20-9-20-13-11-5-25-2c-14 2-25 0-25-6s-9-8-20-5c-12 3-20 0-20-6 0-7-5-9-11-5-14 8-119-16-119-27 0-5-7-6-16-2-9 3-20 0-25-8-5-9-9-10-9-2 0 15-60-6-60-22 0-5-4-4-9 3-7 11-10 11-22 0-8-7-27-14-44-15-16-1-31-7-33-12s-10-7-18-4-14-1-14-8c0-11-2-11-10 1s-10 12-15-2c-4-9-13-14-21-11s-14 0-14-7c0-6-4-9-9-5-16 9-123-60-306-199-154-116-216-186-365-411-111-167-139-240-225-584-63-252-84-365-95-507-21-262-2-398 120-879 117-464 180-614 368-890 353-518 607-776 1077-1094 174-118 338-215 437-260 161-72 592-183 898-231 307-48 431-36 948 91 380 94 520 151 772 319 394 261 657 476 933 763 120 124 584 621 688 735l66 73 128-92c431-309 1350-890 1740-1101l327-177c102-55 189-101 193-101s104-44 223-99c336-152 363-164 587-246 367-135 612-212 920-290 374-95 413-103 770-166l420-74c236-41 369-64 415-70 60-7 190-25 215-30l100-10c44-4 91-8 105-11 69-11 348-19 625-18 354 1 416 7 745 80 651 145 999 258 1522 495 412 187 999 501 1300 695 37 24 71 44 76 44 13 0 481 315 622 419 135 98 482 372 628 494 350 292 662 649 975 1115 132 196 303 562 421 901 51 148 152 539 190 741 79 418 72 536-69 1159l-65 283 188 257c577 784 1138 1645 1427 2185 26 49 72 130 102 180 64 106 444 870 593 1191 95 203 237 544 365 875 207 533 425 1282 594 2035 140 628 204 1029 231 1445 16 250 24 1009 12 1130-65 618-75 682-167 1096-106 474-174 702-480 1624-273 824-407 1247-505 1595-123 441-208 685-297 858s-329 515-508 727c-119 140-227 236-479 425-408 306-632 442-867 529-52 19-139 53-194 76-122 50-361 121-418 123-23 0-48 7-56 15s-24 11-42 7-29-2-29 4-7 8-15 5-22 1-31 11c-11 11-25 14-45 10-17-4-29-2-29 3 0 6-9 8-20 5s-20 0-20 6c0 5-7 8-15 5s-21 1-30 9a2459 2459 0 0 1-485 118c0 4-9 5-20 2s-20 0-20 6c0 5-7 8-16 4-9-3-19-1-23 5-11 18-130 44-166 38-19-4-35-2-37 4-5 15-148 42-185 35-22-4-33-2-33 6 0 7-9 9-27 5-15-4-29-3-33 4-10 17-268 62-317 56-28-4-43-1-46 7-2 8-24 12-60 11-32 0-57 4-57 9s-13 6-30 2c-20-4-30-3-30 5s-9 10-27 6c-17-5-29-3-34 6-5 8-30 13-69 13-33 0-60 4-60 8 0 5-12 6-27 3-17-5-29-3-34 6-5 8-29 13-66 13-32 0-61 4-65 9-4 6-33 10-65 10-32 1-61 5-65 11-4 5-34 10-68 10-33 0-60 4-60 8 0 5-15 6-34 3-20-4-36-2-38 4-5 15-116 33-160 26-25-4-38-2-38 5s-12 9-34 5c-24-5-35-3-38 6s-27 13-76 13c-40 0-72 4-72 9s-18 6-40 2c-27-4-40-3-40 5s-14 10-45 6c-25-4-45-3-45 2 0 9-181 26-287 26-40 0-73 3-73 7 0 5-13 8-30 8-16 0-30-4-30-8 0-5-13-9-30-10-16 0-30 4-30 10 0 7-17 9-49 5-34-4-51-2-54 6-2 8-29 12-80 11-43 0-77 3-77 7 0 13-65 17-109 7-34-9-45-8-51 2-7 11-67 14-282 16-150 1-294 0-320-3zm-9438-5743c183-29 447-100 617-166 61-24 311-102 555-173 483-141 970-291 1198-369 200-69 360-140 675-301 686-351 741-385 1502-932 669-482 834-609 1463-1130 329-273 344-286 800-751l1625-1647c1148-1163 1809-1837 1980-2021 301-325 1312-1603 1554-1964 90-134 354-564 459-746 139-243 279-549 448-978 36-91 109-267 163-391 121-278 144-345 171-507 19-109 21-154 17-289-7-228-45-392-155-670-161-405-231-536-446-825-177-238-669-689-1021-937a4545 4545 0 0 0-415-274c0-6-7-8-15-5-9 3-18-1-21-9-4-8-12-15-20-15s-14-4-14-10c0-5-7-10-15-10s-15-4-15-10c0-5-7-10-15-10s-15-5-15-11c0-5-4-7-10-4-5 3-10 1-10-4 0-6-7-11-15-11s-15-5-15-11c0-5-4-7-10-4-5 3-10 1-10-4 0-6-7-11-15-11s-15-5-15-11c0-5-4-7-10-4-5 3-10 2-10-4s-11-13-25-17c-14-3-25-10-25-16 0-5-4-6-10-3-5 3-10 1-10-4 0-6-7-11-15-11s-15-5-15-11c0-5-4-7-10-4-5 3-10 1-10-5s-4-8-10-5c-5 3-10 1-10-4 0-6-7-11-15-11s-15-5-15-11c0-5-4-7-10-4-5 3-10 1-10-5s-4-8-10-5c-5 3-10 1-10-4 0-6-7-11-15-11s-15-5-15-11c0-5-4-7-10-4-5 3-10 1-10-5s-4-8-10-5c-5 3-10 2-10-4s-11-13-25-17c-14-3-25-10-25-16 0-5-4-6-10-3-5 3-10 1-10-5s-4-8-10-5c-5 3-10 2-10-4s-11-13-25-17c-14-3-25-10-25-16 0-5-4-6-10-3-5 3-10 1-10-5s-4-8-10-5c-5 3-10 2-10-4s-11-13-25-17c-14-3-25-10-25-16 0-5-4-6-10-3-5 3-10 1-10-5s-4-8-10-5c-5 3-10 1-10-5s-4-8-10-5c-5 3-10 2-10-4 0-5-16-15-35-22s-35-17-35-22c0-4-4-5-10-2-5 3-10 1-10-5s-4-8-10-5c-5 3-10 1-10-5s-4-8-10-5c-5 3-10 1-10-5s-4-8-10-5c-5 3-10 1-10-5s-4-8-10-5c-5 3-10 1-10-5s-4-8-10-5c-5 3-10 1-10-5s-4-8-10-5c-5 3-10 1-10-5s-4-8-10-5c-5 3-10 1-10-5s-4-8-10-5c-5 3-10 1-10-5s-4-8-10-5c-5 3-10 1-10-5s-4-8-10-5c-5 3-10 1-10-5s-4-8-10-5c-5 3-10 1-10-5s-4-8-10-5c-5 3-10 1-10-5s-5-8-10-5c-6 3-17-1-26-9-9-9-20-14-25-11-5 4-9 1-9-5s-4-8-10-5c-5 3-10 1-10-5s-4-8-10-5c-5 3-10 1-10-5s-4-8-10-5c-5 3-10 1-10-5s-4-9-9-5c-5 3-17-2-25-11-9-8-16-12-16-8 0 3-6 1-13-5-8-6-17-8-20-4-4 3-7 1-7-6s-4-9-10-6c-5 3-10 1-10-5s-4-8-10-5c-5 3-10 1-10-5s-4-8-10-5c-5 3-10 2-10-3 0-6-6-9-12-9-20 2-98-34-98-45 0-5-4-7-9-3-12 7-61-15-61-27 0-5-4-7-9-4-11 7-71-16-71-27 0-4-4-6-9-3s-11-1-15-9c-6-17-36-21-36-5 0 14-34-4-61-31-15-15-28-19-50-14-20 5-29 3-29-6 0-7-3-9-7-6-3 4-11-1-18-9-7-10-29-18-55-19-25-1-46-8-48-14s-8-9-13-6c-11 8-119-26-119-37 0-4-7-5-15-2-8 4-15 1-15-5s-7-8-15-5c-8 4-15 2-15-2 0-5-14-10-32-10-18-1-34-6-36-12-1-5-12-8-22-5-11 3-20 1-20-3 0-5-14-10-32-10-18-1-34-6-36-12-1-5-11-8-21-5-11 3-21-2-24-11-7-17-37-22-37-6 0 6-9 10-20 10s-20-6-20-12c0-9-4-8-10 2-8 12-10 12-10-5s-2-17-10-5c-6 9-10 10-10 3 0-8-12-10-35-6-21 3-35 2-35-5 0-5-9-8-20-5s-20 1-20-5c0-7-11-8-32-1-39 11-178 12-178 1 0-15-80-33-100-22-14 8-26 7-40 0-12-6-31-8-43-4-12 5-28 7-35 5-7-1-15 5-18 14-8 21-99 21-108 0-7-19-35-19-42 0-7 18-118 21-179 4-28-8-40-8-43 0-2 6-16 8-33 4-18-3-29-1-29 6 0 14-37 15-45 1-10-16-42-12-61 7-13 13-19 14-22 5-6-18-62-16-62 3 0 13-3 13-20 3-17-11-22-11-29 0-5 8-26 12-57 12-110-3-149 1-160 16-6 8-24 14-40 12-73-5-114 2-114 19 0 13-3 14-12 5-15-15-54-16-63-2-3 6-24 10-46 10-25 0-42 5-45 14-4 11-11 12-35 3-22-9-34-9-49 1-11 6-36 12-55 12-21 0-38 6-41 14-4 11-11 12-35 3-22-9-34-9-49 1-11 6-36 12-55 12-21 0-38 6-41 14-4 11-11 12-35 3-22-9-34-9-49 1-11 6-33 12-50 12-20 0-33 7-41 21-6 12-14 17-18 12-10-16-121-4-121 13 0 11-5 11-26 2-20-9-30-9-45 0-10 7-34 12-53 12s-38 5-41 10c-3 6-16 8-28 5-13-3-42 5-71 20-27 14-55 25-63 25-7 0-13 4-13 10 0 5-20 7-47 4-45-5-51-3-87 31-30 29-44 35-63 30-16-4-29-1-37 8-19 25-145 68-208 72-33 2-69 10-81 18s-44 17-71 20c-27 4-65 16-83 27-19 11-43 20-54 20-10 0-19 5-19 10 0 6 5 10 10 10 25 0 6 20-32 33-39 14-215 93-356 160-40 19-63 23-98 19-36-4-49-1-67 16-12 11-31 22-42 24-10 2-22 13-25 25-8 32-339 197-400 200-35 1-49 7-65 27-11 14-26 26-33 26-16 0-72 28-87 44-7 6-10 16-8 22 2 7-29 30-69 52s-90 51-110 65-38 21-40 15-16-7-38-1c-26 7-35 15-35 31 0 29-34 52-67 45-32-6-67 15-46 28 20 13 0 23-41 21-35-2-40 1-53 28-9 22-46 53-128 106l-158 105c-23 16-47 29-52 29-6 0-10 6-10 13 0 9-2 9-9-1-5-9-17-11-37-6-41 10-55 24-48 46 5 16 2 18-20 12-19-4-26-2-26 8 0 20-34 47-173 139-87 58-133 82-161 85-45 4-68 20-62 43 4 12-30 41-122 105-70 49-151 108-180 130-41 30-62 39-87 38-25-2-40 4-58 24-14 15-23 32-20 39 2 7-11 23-29 36s-152 118-298 234c-353 280-348 277-363 279-6 1-18 5-24 9-8 5-13 4-13-2 0-14-67-14-75-1-3 6-17 7-31 4-18-5-24-2-24 10 0 9-8 16-20 16-11 0-20-3-20-8 0-4-16-7-35-6-20 1-42-4-50-12s-17-14-20-13l-35-9c-37-13-102-97-182-234-170-293-250-398-586-768-609-669-830-886-1125-1105a1878 1878 0 0 0-333-210c-27-10-55-26-61-34-11-14-14-14-23-1-7 11-10 11-10 2 0-7-4-11-9-8-5 4-11 1-13-5s-20-17-41-24c-31-10-37-10-37 1s-6 11-33-1c-28-12-186-31-304-38-24-1-43-5-43-9 0-13-30-9-31 5 0 9-2 9-6 0-7-18-32-16-39 2-5 11-11 12-24 5-29-16-59-12-72 9-9 15-16 17-25 10-20-17-107 0-144 27-18 13-38 24-45 24-6 0-14 6-17 14s-43 34-88 57c-45 24-138 80-206 125-68 44-123 77-123 73 0-5-10-9-23-9-29 0-80 51-72 72 4 9-27 47-90 109a2115 2115 0 0 0-425 564c-144 295-212 658-166 884 30 148 97 285 160 326 35 23 76 21 181-9 308-90 640-94 1000-10 177 41 245 61 450 137 204 76 224 85 403 184 424 233 889 547 1069 720 100 97 129 201 99 354l-17 84-533 535c-545 548-872 899-977 1050-32 47-86 117-120 155-239 274-739 941-739 987 0 6-26 52-59 102a7446 7446 0 0 0-461 891c-165 398-309 826-445 1320-87 316-117 467-167 825-33 233-33 239-33 625 0 312 4 419 18 535 52 431 102 713 181 1034 25 99 43 184 40 188s0 8 7 8c6 0 9 8 6 20-3 11-1 20 3 20 7 0 23 61 25 95 0 6 4 16 8 23 5 6 5 17 2 22-3 6-2 10 3 10 8 0 36 95 37 125a6136 6136 0 0 1 116 345c6 5 46 115 51 140a629 629 0 0 1 57 154 1320 1320 0 0 1 103 239c-1 4 3 7 9 7 5 0 8 4 5 9-4 5-3 11 1 13 5 1 26 41 48 88s42 87 45 90c12 11 100 170 100 180 0 5 4 10 8 10 5 0 16 17 26 38a6186 6186 0 0 0 281 427c47 67 57 80 80 108l72 87c171 208 927 928 1223 1165 206 165 410 277 595 325 80 22 306 27 415 10z" style="transform:none"/>
</svg>
